<svg width="381" height="252" viewBox="0 0 381 252" fill="none" xmlns="http://www.w3.org/2000/svg">
<g clip-path="url(#clip0_412_2)">
<path d="M154.066 201.882C153.972 201.849 153.895 201.78 153.852 201.69C153.809 201.6 153.803 201.496 153.836 201.402C153.869 201.308 153.938 201.231 154.028 201.188C154.118 201.144 154.222 201.139 154.316 201.172C168.352 206.086 183.335 207.678 198.09 205.822C198.188 205.811 198.286 205.84 198.364 205.901C198.441 205.962 198.492 206.051 198.504 206.149C198.516 206.247 198.49 206.345 198.43 206.424C198.37 206.502 198.282 206.554 198.184 206.568C183.314 208.438 168.212 206.834 154.066 201.882Z" fill="#312DFF"/>
<path d="M227.2 197.238C248.113 187.219 264.664 169.93 273.76 148.6C273.799 148.508 273.873 148.436 273.966 148.399C274.059 148.361 274.162 148.363 274.254 148.402C274.346 148.441 274.418 148.515 274.455 148.608C274.493 148.701 274.491 148.804 274.452 148.896C265.285 170.394 248.605 187.82 227.528 197.918C227.438 197.961 227.334 197.967 227.24 197.934C227.145 197.901 227.068 197.832 227.024 197.742C226.981 197.652 226.975 197.548 227.008 197.453C227.041 197.359 227.11 197.281 227.2 197.238Z" fill="#312DFF"/>
<path d="M281.686 108.152C281.587 108.153 281.492 108.115 281.421 108.047C281.349 107.979 281.307 107.887 281.302 107.788C280.86 94.5935 277.653 81.6386 271.888 69.762C271.866 69.7175 271.854 69.6692 271.851 69.6198C271.848 69.5704 271.855 69.521 271.871 69.4743C271.888 69.4276 271.913 69.3845 271.946 69.3476C271.979 69.3107 272.018 69.2806 272.063 69.259C272.153 69.2155 272.256 69.2095 272.351 69.2423C272.397 69.2586 272.44 69.2839 272.477 69.3168C272.514 69.3497 272.544 69.3895 272.566 69.434C278.376 81.4051 281.609 94.4628 282.054 107.762C282.057 107.862 282.019 107.96 281.95 108.033C281.881 108.106 281.786 108.149 281.686 108.152Z" fill="#312DFF"/>
<path d="M257.788 48.4698C243.1 31.677 222.988 20.5659 200.954 17.0698C200.855 17.0544 200.767 17.0005 200.708 16.9198C200.649 16.8392 200.625 16.7385 200.64 16.6398C200.655 16.5411 200.709 16.4526 200.79 16.3938C200.871 16.3349 200.971 16.3104 201.07 16.3258C223.281 19.8525 243.551 31.0558 258.354 47.9858C258.403 48.0622 258.422 48.1537 258.409 48.2434C258.396 48.3331 258.35 48.415 258.281 48.4739C258.213 48.5328 258.125 48.5649 258.034 48.5641C257.943 48.5634 257.856 48.5299 257.788 48.4698Z" fill="#312DFF"/>
<path d="M97.6619 73.4C105.603 54.9935 119.082 39.519 136.225 29.1287C153.369 18.7384 173.324 13.9488 193.316 15.4261C193.415 15.4337 193.508 15.4806 193.573 15.5564C193.637 15.6322 193.67 15.7306 193.662 15.8301C193.654 15.9295 193.607 16.0218 193.532 16.0867C193.456 16.1516 193.357 16.1837 193.258 16.1761C173.423 14.715 153.627 19.469 136.618 29.7774C119.61 40.0858 106.236 55.4365 98.3539 73.6961C98.3147 73.7878 98.2406 73.8602 98.1479 73.8974C98.0553 73.9345 97.9517 73.9333 97.8599 73.8941C97.7681 73.8548 97.6957 73.7807 97.6586 73.6881C97.6215 73.5954 97.6227 73.4918 97.6619 73.4Z" fill="#312DFF"/>
<path d="M134.236 192.2C118.482 182.087 106.015 167.603 98.3593 150.518C90.704 133.434 88.1919 114.489 91.1301 95.9999C91.146 95.9013 91.2005 95.813 91.2815 95.7544C91.3625 95.6959 91.4634 95.672 91.5621 95.6879C91.6608 95.7038 91.7491 95.7583 91.8076 95.8393C91.8661 95.9203 91.89 96.0212 91.8741 96.1199C88.9597 114.463 91.4528 133.258 99.0485 150.206C106.644 167.155 119.013 181.524 134.644 191.556C134.73 191.61 134.79 191.696 134.812 191.794C134.834 191.893 134.816 191.997 134.762 192.082C134.708 192.167 134.622 192.228 134.524 192.25C134.425 192.272 134.322 192.254 134.236 192.2Z" fill="#312DFF"/>
<path d="M343.318 84.856C320.47 87.636 299.546 89.294 277.286 87.808C278.744 88.5995 280.148 89.4888 281.486 90.47C279.736 95.336 277.434 101.14 277.752 105.87C270.206 110.224 260.314 113.042 254.228 111.23C247.99 98.006 246.344 90.444 246.488 85.29C246.578 82.7211 247.123 80.1886 248.098 77.81L243.96 83.752L191.502 51.83C192.147 47.9631 193.573 44.2681 195.693 40.97C197.812 37.6719 200.581 34.8397 203.83 32.646C218.82 41.4 254.388 65 257.664 65.264C257 73.8674 257.851 82.5206 260.178 90.83C263.822 82.0092 268.723 73.7619 274.728 66.344C292.296 69.082 316.766 65.09 341.65 62.434C338.224 62.71 338.01 77.246 341.34 83.134C341.956 84.226 342.64 84.856 343.318 84.856Z" fill="#F7AF24"/>
<path d="M158.4 119.782C146.867 118.888 135.296 118.577 123.732 118.85C124.449 116.386 124.878 113.848 125.01 111.286C115.5 113.75 106.322 113.794 94.1221 112.064C94.1221 112.008 94.1221 111.956 94.1221 111.902C88.4441 115.642 83.4201 128.302 87.0821 138.54L77.1781 159.492L49.1301 141.578C40.6741 146.876 36.4201 153.6 33.3301 163.968L68.7081 188.2C71.0825 189.826 73.7741 190.932 76.6061 191.445C79.4382 191.958 82.3467 191.866 85.1407 191.175C87.9347 190.485 90.551 189.211 92.8179 187.437C95.0848 185.664 96.951 183.431 98.2941 180.886L109.61 159.396L96.2101 148.978C107.476 155.098 129.344 153.402 142.144 151.818C138.785 165.211 136.156 178.777 134.268 192.456C141.481 197.322 150.285 199.239 158.868 197.812C165.275 179.833 170.692 161.516 175.092 142.944C175.756 140.306 175.835 137.556 175.324 134.884C174.814 132.213 173.725 129.686 172.135 127.479C170.545 125.273 168.492 123.441 166.119 122.111C163.747 120.781 161.112 119.986 158.4 119.782Z" fill="#F7AF24"/>
<path d="M180.302 41.6999C178.916 44.2387 176.692 46.2179 174.01 47.2999C171.389 42.2296 167.632 37.8344 163.03 34.4579C165.644 31.2659 168.112 25.5619 168 22.5999C167.703 19.2431 167.123 15.9174 166.268 12.6579C166.116 11.9399 167.068 11.0439 169.3 15.0199C169.472 15.3299 169.624 15.6199 169.992 16.2839C169.57 13.3599 168.58 9.62785 168.202 7.33385C168.078 6.56385 169.142 5.65985 171.302 10.0099C171.594 10.5859 171.936 11.4099 172.592 12.8099C172.956 8.76985 172.97 4.88985 172.98 1.71385C172.98 1.38585 173.47 0.929849 173.744 1.11385C176.128 2.65185 179.316 18.8879 178.472 27.2279C178.926 25.8279 179.394 24.3339 179.794 22.9999C181.17 18.3999 182.73 18.1419 183.234 21.1599C184.224 28.1461 183.207 35.2697 180.302 41.6999Z" fill="#F7AF24"/>
<path d="M108.954 79.0639C99.8999 80.6159 93.7419 69.55 93.7419 69.55C94.2286 69.7861 94.7587 69.9193 95.2991 69.9415C95.8395 69.9638 96.3788 69.8744 96.8832 69.6791C97.3875 69.4838 97.8463 69.1866 98.2308 68.8062C98.6153 68.4257 98.9173 67.9703 99.1179 67.468C99.6328 64.3224 98.9165 61.0993 97.1179 58.4679C97.3098 57.7106 97.2902 56.9153 97.0613 56.1684C96.8324 55.4215 96.4031 54.7516 95.8199 54.2318C92.6939 51.9018 94.8199 49.0779 96.7999 51.0119C98.5539 52.7259 97.9999 50.2119 96.7419 47.9939C97.0024 48.2154 97.3141 48.3684 97.6487 48.4388C97.9834 48.5091 98.3303 48.4945 98.6579 48.3965C98.9855 48.2985 99.2834 48.1202 99.5244 47.8777C99.7654 47.6351 99.942 47.3361 100.038 47.0079C100.284 47.2013 100.571 47.3376 100.876 47.4072C101.182 47.4768 101.499 47.4778 101.805 47.4104C102.111 47.3429 102.398 47.2085 102.646 47.0168C102.893 46.8252 103.096 46.581 103.238 46.3019C104.638 47.2699 106.504 46.666 106.598 45.2C114.764 59.576 112.744 62.6719 103.102 61.6619L107.636 64.748C107.863 65.5498 108.294 66.2792 108.886 66.8659C109.619 67.4623 110.532 67.7922 111.477 67.8013C112.422 67.8103 113.342 67.4983 114.086 66.916L116.15 65.716C116.15 65.716 118 77.5119 108.954 79.0639Z" fill="#F7AF24"/>
<path d="M35.18 69.0421C31.1706 69.1355 27.232 67.9748 23.914 65.7221C21.278 64.1081 20.714 65.2101 22.348 67.8761C22.8285 68.7493 23.0071 69.7569 22.856 70.7421C20.2055 71.263 17.5834 71.9192 15 72.7081C0.703979 77.3081 8.75198 77.2601 13.246 76.3981C11.239 77.0094 9.27363 77.7496 7.36198 78.6141C-3.01602 83.3421 -1.68802 85.4501 10.362 81.3061C8.81262 82.1191 7.31207 83.022 5.86798 84.0101C2.37198 86.3901 3.68998 87.0461 7.16598 85.9801C8.92598 85.4441 10.892 84.8361 12.33 84.3601C11.3413 84.9197 10.3918 85.5458 9.48798 86.2341C5.53598 89.2201 7.42998 89.9841 11 88.8001C19.22 86.0681 30.522 84.1181 35.778 84.4001C34.472 79.384 34.268 74.1445 35.18 69.0421Z" fill="#F7AF24"/>
<path d="M319.33 11.5999L314.146 6.43989C313.858 6.15321 313.629 5.81262 313.473 5.43755C313.316 5.06249 313.236 4.66031 313.235 4.25396C313.234 3.84761 313.313 3.44506 313.467 3.06928C313.622 2.69351 313.849 2.35188 314.136 2.06389C314.423 1.7759 314.763 1.54719 315.138 1.39083C315.513 1.23447 315.915 1.15352 316.322 1.15259C316.728 1.15166 317.131 1.23078 317.507 1.38542C317.882 1.54007 318.224 1.76721 318.512 2.05389L319.312 2.85388L320.112 2.05389C320.399 1.7659 320.739 1.53719 321.114 1.38083C321.489 1.22447 321.892 1.14351 322.298 1.14259C322.704 1.14166 323.107 1.22077 323.483 1.37542C323.858 1.53007 324.2 1.75721 324.488 2.04388C324.776 2.33056 325.005 2.67116 325.161 3.04622C325.317 3.42128 325.398 3.82346 325.399 4.22981C325.4 4.63616 325.321 5.03872 325.166 5.41449C325.012 5.79026 324.785 6.1319 324.498 6.41988L319.33 11.5999Z" fill="#312DFF"/>
<path d="M65.086 32.1541C64.1897 32.1517 63.3071 31.9334 62.513 31.5177C61.719 31.102 61.0367 30.5011 60.524 29.7659C60.0113 29.0307 59.6833 28.1828 59.5676 27.294C59.452 26.4052 59.5522 25.5016 59.8597 24.6597C60.1672 23.8178 60.673 23.0623 61.3343 22.4573C61.9956 21.8522 62.7929 21.4154 63.6587 21.1837C64.5246 20.9521 65.4335 20.9324 66.3086 21.1264C67.1837 21.3203 67.9991 21.7222 68.686 22.2981C69.5612 23.0363 70.1885 24.0257 70.4828 25.1323C70.7771 26.2388 70.7243 27.4091 70.3315 28.4846C69.9386 29.5601 69.2247 30.4889 68.2865 31.1453C67.3483 31.8016 66.231 32.1538 65.086 32.1541ZM61.4 23.4701C60.8896 24.0783 60.5371 24.803 60.3737 25.5801C60.2103 26.3571 60.2411 27.1624 60.4633 27.9246C60.6855 28.6869 61.0923 29.3826 61.6476 29.9501C62.2029 30.5176 62.8896 30.9394 63.6469 31.1782C64.4041 31.4169 65.2086 31.4651 65.989 31.3187C66.7693 31.1722 67.5015 30.8356 68.1207 30.3385C68.7399 29.8415 69.2269 29.1994 69.5387 28.4692C69.8504 27.7389 69.9773 26.9431 69.908 26.1521C69.8219 25.2024 69.4569 24.2994 68.8589 23.5567C68.2608 22.814 67.4565 22.2647 66.547 21.9781C65.6376 21.6914 64.6637 21.6801 63.7478 21.9456C62.832 22.211 62.0151 22.7415 61.4 23.4701Z" fill="#312DFF"/>
<path d="M278.188 206.586H270.348V198.736C270.348 198.638 270.309 198.544 270.24 198.474C270.17 198.405 270.076 198.366 269.978 198.366C269.88 198.366 269.786 198.405 269.716 198.474C269.647 198.544 269.608 198.638 269.608 198.736V206.576H261.754C261.656 206.576 261.562 206.615 261.492 206.684C261.423 206.754 261.384 206.848 261.384 206.946C261.384 207.044 261.423 207.138 261.492 207.208C261.562 207.277 261.656 207.316 261.754 207.316H269.594V215.168C269.59 215.219 269.597 215.27 269.614 215.318C269.631 215.367 269.658 215.411 269.693 215.448C269.727 215.486 269.77 215.516 269.816 215.536C269.863 215.557 269.914 215.567 269.965 215.567C270.016 215.567 270.067 215.557 270.114 215.536C270.161 215.516 270.203 215.486 270.238 215.448C270.272 215.411 270.299 215.367 270.316 215.318C270.333 215.27 270.34 215.219 270.336 215.168V207.33H278.188C278.237 207.33 278.285 207.32 278.33 207.302C278.376 207.283 278.417 207.256 278.451 207.221C278.486 207.186 278.513 207.145 278.532 207.1C278.55 207.055 278.56 207.007 278.56 206.958C278.56 206.909 278.55 206.861 278.532 206.816C278.513 206.77 278.486 206.729 278.451 206.695C278.417 206.66 278.376 206.633 278.33 206.614C278.285 206.596 278.237 206.586 278.188 206.586Z" fill="#312DFF"/>
<path d="M99.662 218.396L102.012 223.16L107.27 223.924L103.466 227.632L104.364 232.868L99.662 230.396L94.96 232.868L95.858 227.632L92.054 223.924L97.31 223.16L99.662 218.396Z" fill="#312DFF"/>
<path d="M345.072 77.4938C347.456 76.5488 349.615 75.1148 351.411 73.2843C353.207 71.4538 354.599 69.2673 355.498 66.8658C355.533 66.7722 355.529 66.6685 355.488 66.5776C355.447 66.4866 355.371 66.4158 355.277 66.3808C355.183 66.3458 355.08 66.3494 354.989 66.3909C354.898 66.4323 354.827 66.5082 354.792 66.6018C353.926 68.9081 352.587 71.0074 350.86 72.7642C349.133 74.521 347.057 75.8965 344.766 76.8018C344.721 76.8219 344.68 76.8508 344.645 76.8867C344.611 76.9227 344.584 76.965 344.566 77.0114C344.53 77.1049 344.533 77.2091 344.573 77.3008C344.614 77.3926 344.689 77.4645 344.783 77.5007C344.876 77.5369 344.98 77.5344 345.072 77.4938Z" fill="#312DFF"/>
<path d="M380 111.71C379.38 106.61 362.834 114.192 354.47 113.482C352.478 113.266 350.463 113.444 348.54 114.004C344.664 115.204 344.14 118.734 338.428 122.404C337.093 121.56 335.699 120.814 334.256 120.172C333.888 120.124 335.306 118.972 304.674 147.336C303.788 142.482 297.724 113.486 278.122 105.608C277.862 100.276 280.908 93.5219 282.586 88.4799C303.694 89.4279 322.764 87.6959 343.416 85.2279C344.402 85.1919 345.078 84.1179 345.458 83.1879C355.412 82.4799 354.49 82.6999 361.438 81.7399C363.894 81.4019 372.964 80.5639 372.728 78.3859C372.632 77.5159 371.086 77.1179 368.128 77.2059C366.972 77.2399 365.86 77.2059 364.826 77.1519C367.662 76.6099 371.318 75.7239 371.376 75.7099C372.736 75.3719 375.874 74.4419 375.664 73.1519C375.52 72.2799 373.952 71.9519 371.006 72.1859C368.52 72.3859 366.322 72.4699 364.552 72.5039C366.692 71.8899 369.806 71.0039 372.552 70.2519C375.338 69.4899 376.888 68.4719 376.696 67.5339C376.46 66.3839 373.984 66.4779 371.948 66.7579C371.486 66.8219 367.016 67.3799 363.636 67.7999L368.848 65.4239C371.482 64.2239 372.848 62.9799 372.512 62.0839C372.098 60.9859 369.668 61.4699 367.712 62.0679C366.85 62.3319 358.912 64.6919 357.672 64.8679C355.832 65.1399 355.136 64.9039 355.088 64.7439C354.266 62.1439 357.736 55.0779 355.014 54.1979C354.514 54.0399 352.998 53.5579 349.108 61.7079C348.194 63.6219 346.724 64.0819 344.19 64.2259C343.638 63.1699 342.72 61.9159 341.542 62.0699C315.342 64.8699 292.1 68.6839 274.802 65.9759C273.934 65.857 273.103 65.5476 272.368 65.0697C271.634 64.5918 271.014 63.9574 270.554 63.2119C296.474 57.6259 319.894 30.2299 313.4 24.8559C307.738 20.1759 294.126 30.7079 290.66 33.5439C291.082 30.5319 290.422 28.5299 288.69 27.5859C283.238 24.6099 268.49 33.7059 262.578 39.4619C261.044 40.8811 259.857 42.6344 259.11 44.5859C256.588 50.2079 256.066 54.2099 257.556 56.4839C258.067 57.1714 258.74 57.722 259.516 58.0866C260.291 58.4512 261.144 58.6186 262 58.5739C261.682 61.3739 260.52 64.5099 257.724 64.8919C254.758 64.7439 218.662 40.8759 204.018 32.3219C203.957 32.2861 203.887 32.2682 203.816 32.2703C203.745 32.2724 203.677 32.2945 203.618 32.3339C202.98 32.7599 202.366 33.2059 201.776 33.6659C201.576 33.5019 201.394 33.3319 201.216 33.1559C198.192 28.7079 199.494 23.7779 200.748 18.8159C201.41 16.1939 203.526 11.4779 204.312 8.58391C204.381 8.37906 204.375 8.15617 204.294 7.95553C204.214 7.7549 204.064 7.58974 203.872 7.48991C202.386 6.83791 200.072 10.9439 199.22 12.3279C199.798 9.28392 200.476 6.10192 200.732 3.50792C200.747 3.36589 200.723 3.22255 200.663 3.09277C200.604 2.96299 200.511 2.8515 200.394 2.76987C200.276 2.68824 200.14 2.63945 199.997 2.62855C199.855 2.61766 199.712 2.64506 199.584 2.70791C197.062 3.99991 191.4 17.2199 190.458 25.9999C189.924 24.0819 188.748 19.5659 186.746 19.8659C186 19.9759 185.546 20.8039 185.536 22.0819C185.52 27.3459 185.468 31.9639 185.196 39.2579C185.07 42.6119 188.796 45.9239 192.042 48.1639C191.674 49.3606 191.369 50.5756 191.128 51.8039C191.102 52.2039 187.428 49.7919 246.106 85.5019C245.996 91.6559 248.434 99.8299 253.768 111.172L221.18 146.052C215.233 152.426 210.883 160.12 208.488 168.502C195.832 212.934 196.228 211.248 196.288 211.54C197.009 212.242 197.793 212.878 198.628 213.44C197.116 221.37 194.852 229.139 191.866 236.64C187.066 247.51 187.01 249.684 187.584 250.38C190.858 254.35 200.686 239.048 208.134 235.132C209.928 234.241 211.53 233.006 212.848 231.498C215.474 228.378 214.084 224.916 216.934 218.724C218.617 218.616 220.289 218.375 221.934 218.002C222.22 217.872 221.288 220.902 234.716 172.278L269.264 142.06L289.324 172.604C290.545 174.463 292.155 176.034 294.042 177.21C295.93 178.386 298.05 179.139 300.257 179.416C302.463 179.693 304.704 179.488 306.823 178.815C308.943 178.142 310.891 177.017 312.534 175.518C352.462 139.068 350.97 140.548 351.002 140.276C350.627 138.694 350.126 137.144 349.504 135.642C355.74 130.422 362.243 125.531 368.986 120.986C378.876 114.4 380.098 112.6 380 111.71ZM304.04 148.138C304.394 152.024 304.456 153.314 304.44 153.8C304.418 155.334 304.868 155.152 305.276 154.556C305.95 153.576 308.05 150.174 315.654 138.178L334.222 120.978C337.037 122.253 339.638 123.956 341.932 126.028L306.146 158.428C305.56 158.957 304.847 159.328 304.077 159.504C303.307 159.68 302.505 159.656 301.746 159.434C300.988 159.212 300.3 158.799 299.746 158.236C299.192 157.672 298.792 156.976 298.584 156.214C292.298 133.162 287.974 119.484 272.984 108.692C274.624 107.975 276.226 107.174 277.784 106.292C298.736 114.662 304 147.8 304.04 148.138ZM371.064 72.9379C374.518 72.6679 374.92 73.2739 374.92 73.2739C374.92 73.4739 374.036 74.2739 371.194 74.9819C368.109 75.7859 364.979 76.4037 361.82 76.8319C360.856 76.7428 359.899 76.5925 358.954 76.3819C359.338 75.355 359.64 74.2989 359.856 73.2239C363.594 73.3399 367.337 73.2431 371.064 72.9339V72.9379ZM372.064 67.5059C375.176 67.0759 375.95 67.5699 375.972 67.6859C376.01 67.8639 375.236 68.7439 372.372 69.5279C360.372 72.8099 362.572 72.5859 360 72.4779C360.174 71.3239 360.241 70.1563 360.2 68.9899C361.734 68.7999 371.94 67.5179 372.056 67.5019L372.064 67.5059ZM349.792 62.0339C352.454 56.4559 354.148 54.7119 354.792 54.9179C356.49 55.4639 353.592 62.4779 354.378 64.9699C354.462 65.2419 354.718 66.0699 357.79 65.6139C359.19 65.4139 367.854 62.8139 367.938 62.7899C370.938 61.8779 371.786 62.2419 371.826 62.3499C371.89 62.5219 371.264 63.5099 368.556 64.7499C360.088 68.5999 361.542 68.0759 360.172 68.2439C360.14 67.7719 360.096 67.2879 360.032 66.7879C360.018 66.6902 359.966 66.602 359.888 66.5421C359.809 66.4823 359.711 66.4556 359.613 66.468C359.515 66.4803 359.426 66.5306 359.365 66.6081C359.304 66.6855 359.275 66.7839 359.286 66.8819C359.85 71.5299 358.835 76.2325 356.404 80.2339C356.358 80.3225 356.349 80.4257 356.379 80.5208C356.41 80.6158 356.476 80.695 356.565 80.7409C356.654 80.7868 356.757 80.7956 356.852 80.7654C356.947 80.7352 357.026 80.6685 357.072 80.5799C357.694 79.3799 358.238 78.2319 358.692 77.0999C361.805 77.7508 364.982 78.0421 368.162 77.9679C371.082 77.8839 371.922 78.3219 371.984 78.4739C371.96 78.6859 370.972 79.4479 367.984 80.0139C365.514 80.4799 364.688 80.5419 361.334 81.0039C352.534 82.2199 350.914 81.9379 341.558 82.7499C339.257 77.1968 338.713 71.0716 340 65.1999C344.716 64.8859 348.158 65.4279 349.784 62.0299L349.792 62.0339ZM262.06 61.6979C264.688 59.1979 265.592 58.3519 265.904 58.0219C266.248 57.6599 266.058 57.3459 265.6 57.3519C264.565 57.6451 263.497 57.8058 262.422 57.8299C255.572 57.8639 256.986 51.1699 259.8 44.8939C261.01 42.1879 263.338 38.2119 265.964 39.6239C268.026 40.7359 269.43 44.7139 269.216 47.2679C269.19 47.4814 269.225 47.6978 269.317 47.8923C269.409 48.0868 269.553 48.2516 269.734 48.3679C270.176 48.5779 270.768 48.3839 271.716 47.7099C274.218 45.9199 275.716 50.2399 270.844 52.3419C270.386 52.5419 269.886 53.7299 269.824 53.9879C268.378 59.7879 268.328 65.0139 274.076 66.5739C268.45 73.6033 263.801 81.3617 260.256 89.6379C258.182 81.8047 257.424 73.6816 258.012 65.5999C258.978 65.3801 259.865 64.8998 260.577 64.2111C261.29 63.5225 261.8 62.6519 262.052 61.6939L262.06 61.6979ZM200.922 11.0379C202.804 8.03792 203.582 8.18391 203.582 8.18391C203.126 9.96999 202.541 11.7206 201.832 13.4219C201.024 15.361 200.355 17.3554 199.832 19.3899C198.778 22.6116 198.448 26.0259 198.864 29.3899C197.312 25.1379 197.924 19.5899 198.848 14.3599C199 14.2099 198.778 14.4299 200.914 11.0339L200.922 11.0379ZM185.948 39.2839C186.218 32.0479 186.272 27.4159 186.288 22.0839C186.288 21.1259 186.588 20.6479 186.854 20.6079C187.306 20.5479 188.29 21.4079 189.116 24.0879C190.358 28.1119 191.68 33.8879 191.692 33.9379C191.714 34.0353 191.774 34.1197 191.859 34.1728C191.943 34.2259 192.046 34.2432 192.143 34.2209C192.24 34.1986 192.325 34.1386 192.378 34.054C192.431 33.9694 192.448 33.8672 192.426 33.7699C192.426 33.7319 191.826 31.1699 191.076 28.2819C191.098 19.8939 197.676 4.51991 199.986 3.43391C199.106 12.3599 193.418 27.3919 201.186 34.1459C196.998 37.6133 193.906 42.2207 192.284 47.4099C189.686 45.5999 185.834 42.3679 185.948 39.2839ZM246.862 85.3019C246.984 82.7698 247.525 80.2754 248.462 77.9199C248.484 77.8483 248.484 77.7718 248.461 77.7003C248.439 77.6289 248.395 77.566 248.336 77.5199C247.902 77.1599 247.892 77.4619 243.858 83.2499L191.93 51.6499C192.576 47.9172 193.963 44.3517 196.01 41.1645C198.058 37.9773 200.724 35.233 203.85 33.0939C217.918 41.3339 252.45 64.1359 257.266 65.5639C256.65 74.1039 257.514 82.6861 259.82 90.9319C259.842 91.0076 259.887 91.0745 259.948 91.1234C260.01 91.1723 260.086 91.2007 260.164 91.2047C260.243 91.2086 260.321 91.1879 260.387 91.1455C260.453 91.1031 260.505 91.041 260.534 90.9679C264.126 82.246 268.963 74.0901 274.892 66.7539C292.092 69.4359 317.86 65.3839 340.196 62.9739C337.438 66.7079 338.368 81.2759 342.006 84.6419C298.368 89.8919 280.606 87.4419 277.266 87.4419C277.171 87.4398 277.079 87.4739 277.009 87.5373C276.939 87.6006 276.895 87.6884 276.887 87.7828C276.879 87.8771 276.908 87.971 276.966 88.0451C277.025 88.1193 277.11 88.1682 277.204 88.1819C277.65 88.3179 280.684 90.3819 281.036 90.6259C279.396 95.1559 277.13 100.946 277.368 105.676C271.406 109.114 261.046 112.808 254.482 110.92C249.112 99.5099 246.692 91.3699 246.862 85.3019ZM212.262 231.002C211.007 232.437 209.481 233.611 207.772 234.456C200.772 238.14 190.582 252.832 188.154 249.892C187.894 249.576 187.802 247.692 192.544 236.934C195.527 229.494 197.788 221.784 199.298 213.912C204.22 217.301 210.109 219.003 216.08 218.76C213.508 224.584 214.6 228.23 212.264 231L212.262 231.002ZM234.128 171.776C233.928 171.952 234.494 170.216 221.486 217.322C218.71 217.929 215.862 218.143 213.026 217.958L225.98 168.358L263.88 135.438L265.898 144L234.128 171.776ZM289.946 172.176L263.966 132.628C263.917 132.554 263.844 132.5 263.76 132.475C263.676 132.45 263.585 132.455 263.504 132.49C263.423 132.525 263.357 132.587 263.317 132.665C263.277 132.744 263.266 132.834 263.286 132.92L263.686 134.61L225.4 167.87C225.2 168.044 225.78 166.15 212.266 217.894C206.65 217.287 201.35 214.99 197.066 211.308L209.206 168.708C211.57 160.441 215.861 152.852 221.728 146.566L254.34 111.656C259.74 113.15 266.976 111.2 272.178 109.038C287.292 119.742 291.39 132.668 297.866 156.412C298.107 157.299 298.573 158.11 299.217 158.767C299.861 159.423 300.663 159.903 301.546 160.161C302.429 160.419 303.364 160.446 304.26 160.239C305.156 160.033 305.985 159.6 306.666 158.982L342.492 126.55C346.258 130.274 348.926 134.963 350.202 140.104L312.022 174.952C310.46 176.378 308.607 177.448 306.591 178.088C304.575 178.728 302.444 178.923 300.345 178.66C298.247 178.396 296.23 177.68 294.435 176.562C292.64 175.443 291.109 173.948 289.948 172.18L289.946 172.176ZM368.562 120.346C361.862 124.868 355.393 129.725 349.182 134.898C347.049 129.998 343.551 125.815 339.106 122.848C344.622 119.204 345.204 115.824 348.754 114.718C350.585 114.187 352.503 114.02 354.398 114.228C362.398 114.914 378.784 107.982 379.242 111.796C379.294 112.2 378.35 113.85 368.564 120.35L368.562 120.346Z" fill="#312DFF"/>
<path d="M183.6 21.1018C183.092 18.0838 181.068 17.3958 179.422 22.9018C179.282 23.3738 179.13 23.8678 178.976 24.3698C179.01 15.6978 176.314 2.33982 173.942 0.80982C173.394 0.44982 172.596 1.11582 172.596 1.72782C172.596 4.86782 172.54 8.12783 172.31 11.3278L171.63 9.85182C170.36 7.29182 169.23 6.08382 168.37 6.36182C168.169 6.4411 168.003 6.58998 167.903 6.78127C167.803 6.97257 167.775 7.19353 167.824 7.40382C168.084 8.98582 168.802 11.9818 169.236 14.1858C168.074 12.2678 167.112 11.4378 166.374 11.7158C166.184 11.8019 166.03 11.9533 165.942 12.1427C165.854 12.3321 165.837 12.5469 165.894 12.7478C166.742 15.9862 167.318 19.2897 167.616 22.6238C167.718 25.3238 165.466 30.7458 162.928 33.9758C162.614 33.7389 162.244 33.5865 161.855 33.5333C161.465 33.48 161.068 33.5278 160.702 33.6718C146.169 46.1196 130.482 57.1522 113.854 66.6198C113.177 67.1514 112.339 67.4372 111.479 67.4307C110.618 67.4242 109.785 67.1256 109.116 66.5838C108.113 65.3154 107.525 63.7684 107.434 62.1538C108.2 62.1729 108.96 62.0142 109.654 61.69C110.348 61.3659 110.957 60.8853 111.434 60.2858C112.99 57.9078 111.634 53.3438 106.908 45.0178C106.068 43.5338 105.128 41.9458 104.118 40.2978C102.836 38.2038 100.292 38.1378 99.784 39.4178C98.226 38.4858 95.818 38.8318 95.412 40.3538C95.0841 40.1074 94.7022 39.9428 94.2979 39.8736C93.8936 39.8044 93.4786 39.8327 93.0874 39.9561C92.6963 40.0796 92.3402 40.2945 92.0488 40.5832C91.7574 40.8718 91.5391 41.2259 91.412 41.6158C91.0954 41.4301 90.736 41.3298 90.369 41.3249C90.002 41.3201 89.64 41.4108 89.3186 41.5881C88.9973 41.7654 88.7276 42.0233 88.536 42.3364C88.3444 42.6494 88.2376 43.007 88.226 43.3738C85.61 42.6738 83.752 44.9358 86.786 47.9918C88.084 49.3038 93.66 53.4818 96.786 58.6658C98.5428 61.211 99.2459 64.3376 98.748 67.3898C98.5568 67.8384 98.2759 68.2432 97.9226 68.5793C97.5693 68.9153 97.151 69.1757 96.6934 69.3442C96.2359 69.5128 95.7487 69.5861 95.2618 69.5595C94.7749 69.533 94.2985 69.4072 93.862 69.1898C93.662 69.1218 69.662 62.7439 35.838 65.9899C35.7652 65.9982 35.6962 66.027 35.6392 66.073C35.5822 66.1191 35.5394 66.1804 35.516 66.2498C35.26 67.0498 35.042 67.8678 34.87 68.6718C31.0299 68.7171 27.2701 67.5712 24.108 65.3918C22.708 64.5418 21.806 64.3638 21.322 64.8438C20.8 65.3658 21.038 66.4438 22.026 68.0638C22.4458 68.7757 22.6049 69.6115 22.476 70.4278C19.9112 70.9329 17.3744 71.5711 14.876 72.3398C6.13399 75.1698 6.36599 75.9998 6.50399 76.5018C6.70399 77.1958 8.24199 77.2759 9.87599 77.1579C8.03199 77.8599 -0.684011 81.5238 0.0459891 83.3378C0.589989 84.6918 5.74999 83.1519 7.15199 82.7379C6.65599 83.0439 6.15199 83.3638 5.66199 83.7038C3.86199 84.9218 3.20799 85.7438 3.50799 86.3698C4.12199 87.6398 8.20599 86.0678 9.73599 85.5878C8.69999 86.3398 6.41799 88.0258 6.99999 89.1398C7.54999 90.1878 9.99999 89.5259 11.116 89.1539C18.9845 86.5312 27.189 85.0528 35.478 84.7639C35.666 85.5439 35.8727 86.3332 36.098 87.1319C36.272 87.7479 36.47 87.1538 48.746 86.9118C48.8036 86.9278 48.8644 86.9278 48.922 86.9118C62.6249 86.6265 76.3151 87.9203 89.722 90.7679C91.8043 97.5858 93.1454 104.608 93.722 111.714C88.364 115.452 83 128.456 86.622 138.642L77.02 158.946C48 140.4 49.4 141.26 49.2 141.2C47.6275 142.029 46.158 143.041 44.822 144.214C44.09 143.786 43.746 143.444 42.896 142.854C38.65 139.912 34.772 136.438 32.118 136.01C29.663 135.832 27.1952 136.034 24.802 136.61C15.042 138.868 -6.16001 137.9 2.05199 143.474C8.50399 147.858 28.816 155.932 34.5 159.332C33.8993 160.876 33.3885 162.454 32.97 164.058C33.044 164.334 31.652 163.27 68.506 188.504C70.9246 190.158 73.6655 191.283 76.5491 191.804C79.4326 192.325 82.3937 192.231 85.2384 191.528C88.083 190.825 90.747 189.529 93.0559 187.724C95.3647 185.92 97.2663 183.648 98.636 181.058L113.188 153.418C122.686 153.896 132.207 153.506 141.634 152.252C138.345 165.489 135.759 178.89 133.886 192.4C133.876 192.47 133.886 192.542 133.914 192.606C133.943 192.671 133.989 192.726 134.048 192.766C135.106 193.479 136.204 194.131 137.336 194.72C137.238 194.962 137.136 195.18 137.048 195.426C135.248 200.498 133.018 205.004 133.304 207.626C133.779 210.041 134.624 212.367 135.81 214.524C140.578 223.348 145.246 244.054 148.454 234.642C151.006 227.166 153.402 205.33 155.28 198.624C156.503 198.548 157.721 198.397 158.926 198.172C158.99 198.16 159.05 198.132 159.1 198.09C159.15 198.048 159.188 197.993 159.21 197.932C165.629 179.943 171.048 161.613 175.444 143.026C176.119 140.338 176.199 137.535 175.679 134.813C175.159 132.091 174.051 129.515 172.432 127.266C170.813 125.016 168.722 123.147 166.306 121.789C163.89 120.431 161.207 119.617 158.444 119.404C146.926 118.522 135.43 118.204 124.264 118.46C124.841 116.12 125.231 113.738 125.43 111.336C126.978 102.426 128.852 92.2058 128.156 83.3118C141.778 76.5998 163.532 59.0458 174.358 49.5438C174.758 49.1318 174.804 48.4578 174.48 47.4918C177.116 46.3714 179.291 44.3845 180.644 41.8598C183.56 35.3556 184.584 28.1615 183.6 21.1018ZM168.6 7.07382C168.6 7.07382 169.382 7.00982 170.952 10.1698L172.186 12.8538C171.904 16.6632 171.16 20.4241 169.97 24.0538C170.306 22.3394 170.5 20.6002 170.55 18.8538C170.69 15.2698 168.308 7.57382 168.6 7.07382ZM168.368 22.5878C167.995 19.1653 167.418 15.768 166.642 12.4138C166.726 12.4138 167.452 12.5058 168.962 15.2138L169.622 16.4138C169.75 17.2072 169.809 18.0103 169.798 18.8138C169.94 23.9286 168.125 28.9047 164.722 32.7258C166.768 29.7049 168.024 26.2194 168.376 22.5878H168.368ZM99.486 67.5459C100.021 64.3687 99.3192 61.1073 97.524 58.4318C97.697 57.6249 97.6539 56.7866 97.3989 56.0016C97.1439 55.2167 96.6862 54.5131 96.072 53.9618C95.722 53.6818 94.542 52.7838 94.602 51.6638C94.658 50.7698 95.514 50.3718 96.444 51.2038C96.73 51.4598 97.3 52.0778 97.816 51.9398C98.798 51.6778 97.968 49.6578 97.538 48.7398C98.0584 48.8903 98.6149 48.8545 99.1117 48.6388C99.6086 48.423 100.015 48.0408 100.26 47.5578C100.783 47.8187 101.382 47.8887 101.951 47.7558C102.521 47.6229 103.026 47.2954 103.38 46.8298C103.919 47.1377 104.553 47.2366 105.161 47.1079C105.768 46.9793 106.308 46.6319 106.676 46.1318C110.85 53.6038 112.124 57.8558 110.808 59.8698C109.526 61.8258 105.534 61.5398 103.128 61.2878C103.055 61.2797 102.981 61.2931 102.916 61.3264C102.85 61.3597 102.796 61.4115 102.76 61.4753C102.723 61.5391 102.706 61.6122 102.711 61.6855C102.716 61.7589 102.742 61.8292 102.786 61.8878C102.86 61.9818 107.21 64.9278 107.308 64.9958C107.553 65.8186 108.008 66.5636 108.628 67.1579C109.42 67.8089 110.409 68.1722 111.434 68.1881C112.458 68.2041 113.458 67.8719 114.27 67.2458L115.842 66.3318C116.086 68.6558 116.472 77.3898 108.896 78.6938C101.606 79.9458 96.152 72.6038 94.552 70.1478C95.551 70.4181 96.6153 70.2999 97.5307 69.8172C98.4461 69.3344 99.1447 68.5229 99.486 67.5459ZM0.74999 83.0838C0.76799 82.7858 2.01799 81.4618 7.51799 78.9558C11.1974 77.3406 15.0338 76.1094 18.966 75.2818C17.9985 76.3275 17.137 77.4664 16.394 78.6819C14.5098 79.2605 12.6608 79.9476 10.856 80.7399C3.32999 83.3779 0.99999 83.2898 0.74999 83.0838ZM7.06199 85.6218C6.16018 86.0144 5.17227 86.1673 4.19399 86.0658C4.19399 86.0658 4.21399 85.5959 6.08599 84.3219C9.06528 82.2606 12.3538 80.6869 15.828 79.6599C15.2944 80.6556 14.8494 81.6962 14.498 82.7699C11.666 84.2479 13.178 83.7558 7.06199 85.6218ZM10.882 88.4398C8.68199 89.1718 7.75599 88.9538 7.66999 88.7898C7.59999 88.6578 7.82999 87.9598 9.71999 86.5338C11.1304 85.4798 12.6332 84.5554 14.21 83.7718C14.0685 84.2964 13.9695 84.8314 13.914 85.3718C13.9103 85.4211 13.9164 85.4706 13.9318 85.5175C13.9473 85.5644 13.9718 85.6078 14.004 85.6452C14.0691 85.7208 14.1615 85.7674 14.261 85.7748C14.3604 85.7823 14.4588 85.7499 14.5344 85.6848C14.6099 85.6197 14.6566 85.5273 14.664 85.4278C14.8929 83.7731 15.3951 82.168 16.15 80.6778C16.594 79.7638 17.084 78.9819 16.964 79.1839C17.9335 77.5935 19.1015 76.1331 20.44 74.8378C20.592 74.6378 20.414 74.1558 19.872 74.2778C18.946 74.4778 15.722 75.2638 13.75 75.8458C11.6402 76.3976 9.44572 76.5496 7.27999 76.2939C7.51799 76.0139 8.75199 75.1118 15.114 73.0598C17.5469 72.3108 20.0168 71.688 22.514 71.1938C22.6938 73.2048 23.6261 75.0738 25.1246 76.4269C26.6231 77.78 28.5772 78.5175 30.596 78.4919C30.6452 78.4878 30.6932 78.4741 30.7371 78.4514C30.7811 78.4288 30.8201 78.3978 30.8521 78.3601C30.884 78.3224 30.9082 78.2788 30.9233 78.2317C30.9384 78.1847 30.9441 78.1351 30.94 78.0858C30.9359 78.0366 30.9222 77.9886 30.8996 77.9447C30.877 77.9008 30.8459 77.8617 30.8082 77.8298C30.7705 77.7978 30.7269 77.7736 30.6799 77.7585C30.6328 77.7434 30.5832 77.7378 30.534 77.7419C28.9705 77.8783 27.41 77.4485 26.1369 76.5307C24.8637 75.613 23.9627 74.2683 23.598 72.7419C22.798 70.4459 23.798 69.4858 22.676 67.6698C21.714 66.0958 21.768 65.4698 21.864 65.3738C21.96 65.2778 22.446 65.2458 23.724 66.0298C26.9588 68.257 30.7966 69.4432 34.724 69.4298C33.9358 74.2761 34.133 79.2316 35.304 83.9998C26.9951 84.325 18.7736 85.8197 10.882 88.4398ZM36.744 86.6398C34.6501 80.1954 34.4481 73.2856 36.162 66.7298C40.03 66.3618 43.762 66.1298 47.35 65.9818C45.661 72.6575 45.9916 79.6843 48.3 86.1718C44.766 86.2438 40.956 86.3998 36.744 86.6358V86.6398ZM15.544 140.68C11.628 141.04 4.94399 141.586 2.29999 142.734C0.86399 141.734 0.91599 141.38 0.91599 141.38C1.36999 139.082 17.49 139.076 24.97 137.346C26.8225 136.929 28.7133 136.705 30.612 136.678C32.2496 136.634 33.8494 137.175 35.124 138.204C34.0588 138.217 32.9952 138.289 31.938 138.42C26.5209 139.501 21.0437 140.254 15.536 140.676L15.544 140.68ZM25.3 154.016C30.433 149.574 36.2926 146.048 42.622 143.594C43.306 144.076 43.586 144.352 44.222 144.74C39.9762 148.517 36.7322 153.287 34.78 158.624C31.7047 156.913 28.5372 155.373 25.292 154.012L25.3 154.016ZM33.772 163.816C36.702 154.106 40.684 147.388 49.136 142.028L58.72 148.15C51.982 152.896 47.196 160.35 44.12 170.896L33.772 163.816ZM97.972 180.708C96.6526 183.205 94.8203 185.396 92.5951 187.135C90.3698 188.875 87.8021 190.125 85.06 190.803C82.318 191.48 79.4637 191.571 76.6842 191.068C73.9048 190.566 71.263 189.481 68.932 187.886L44.758 171.34C47.828 160.704 52.62 153.254 59.4 148.584C78.064 160.506 76.976 159.868 77.176 159.868C77.2473 159.869 77.3174 159.849 77.3778 159.811C77.4381 159.773 77.4862 159.719 77.516 159.654L87 139.6C88.5999 143.39 91.3721 146.568 94.91 148.668L109.11 159.488L97.972 180.708ZM146.744 236.298C144.394 236.436 140.144 220.956 136.484 214.172C135.343 212.102 134.526 209.868 134.064 207.55C134.038 206.392 134.227 205.239 134.622 204.15C135.241 206.24 136.066 208.263 137.086 210.19C140.816 217.092 144.742 231.036 147.686 234.59C147.08 236.244 146.732 236.294 146.732 236.294L146.744 236.298ZM152.472 209.438C146.816 205.685 141.862 200.967 137.838 195.5C137.89 195.364 137.964 195.194 138.02 195.06C143.133 197.598 148.794 198.835 154.5 198.66C153.631 202.213 152.95 205.809 152.46 209.434L152.472 209.438ZM158.59 197.478C150.249 198.821 141.708 196.964 134.678 192.278C135.278 188.17 135.924 184.104 136.592 180.174C140.353 182.784 144.595 184.62 149.072 185.575C153.549 186.531 158.171 186.586 162.67 185.738C161.4 189.532 160.05 193.428 158.578 197.474L158.59 197.478ZM123.476 118.478C121.681 118.521 119.89 118.579 118.102 118.652C118.053 118.653 118.004 118.664 117.959 118.684C117.913 118.703 117.873 118.732 117.838 118.768C117.804 118.803 117.777 118.845 117.76 118.891C117.742 118.937 117.733 118.987 117.734 119.036C117.735 119.085 117.746 119.134 117.766 119.179C117.786 119.224 117.814 119.265 117.85 119.299C117.885 119.334 117.927 119.36 117.973 119.378C118.02 119.396 118.069 119.405 118.118 119.404C131.546 118.968 144.988 119.219 158.39 120.154C161.045 120.358 163.623 121.139 165.944 122.443C168.265 123.747 170.274 125.542 171.83 127.702C173.385 129.863 174.451 132.337 174.951 134.952C175.451 137.567 175.374 140.26 174.726 142.842C171.004 157.622 167.616 170.642 162.938 184.908C158.422 185.812 153.769 185.785 149.265 184.828C144.76 183.872 140.497 182.006 136.738 179.346C138.574 168.666 140.592 159.016 142.448 152.146C152.402 150.9 159.89 149.31 159.964 149.294C160.062 149.273 160.147 149.215 160.201 149.131C160.256 149.047 160.275 148.946 160.254 148.848C160.233 148.75 160.175 148.665 160.091 148.611C160.007 148.556 159.906 148.537 159.808 148.558C143.898 151.822 113.14 155.958 98.124 149.482C95.8903 148.48 93.8247 147.14 92 145.508C89.9377 143.577 88.3614 141.186 87.4 138.53C83.684 128.462 89.4 115.85 94.032 112.426L94.082 112.436C106.694 114.226 115.59 114.036 124.6 111.782C124.46 114.049 124.08 116.294 123.464 118.48L123.476 118.478ZM130.18 81.4158C127.136 77.6338 127.228 77.5098 126.78 77.7898C126.354 78.1898 126.98 78.4038 127.38 83.1198C128.116 91.9038 126.242 102.028 124.722 110.972C115.776 113.26 106.98 113.484 94.488 111.734C94.0907 106.026 93.1287 100.372 91.616 94.8539C94.446 91.1759 94.302 91.4078 94.33 91.2538C94.3427 91.156 94.3169 91.057 94.258 90.9778C94.092 90.7778 94.184 90.8499 90.098 90.0759C76.6286 87.1904 62.8701 85.8763 49.098 86.1599C46.7409 79.6788 46.4068 72.6349 48.14 65.9599C63.3673 65.2354 78.623 66.5545 93.5 69.8819C96.68 75.2419 102.556 80.5558 109.016 79.4438C117.568 77.9718 116.76 67.6918 116.556 65.9258C129.593 58.3358 142.055 49.7995 153.842 40.3858C159.311 44.0892 163.782 49.084 166.86 54.9278C157.896 62.3838 142.078 74.9798 130.18 81.4158ZM173.842 48.9998C173.762 49.0678 171.316 51.2138 167.458 54.4318C164.354 48.6105 159.89 43.6251 154.446 39.8998C156.738 38.0412 158.967 36.1698 161.132 34.2858C163.034 33.2858 171.912 42.9658 173.66 47.4358C173.966 48.2158 174.028 48.7998 173.842 48.9998ZM179.962 41.5419C178.693 43.897 176.661 45.751 174.2 46.7998C171.621 42.0442 168.091 37.8708 163.828 34.5398C172.828 27.4258 173.334 12.5258 173.35 1.73982C173.35 1.65582 173.518 1.48383 173.534 1.45183C175.734 2.86783 178.91 18.9678 178.094 27.1678C177.182 30.0078 176.346 32.4738 176.334 32.5118C176.302 32.6065 176.309 32.71 176.354 32.7994C176.398 32.8889 176.476 32.957 176.571 32.9888C176.666 33.0207 176.769 33.0136 176.859 32.9691C176.948 32.9247 177.016 32.8465 177.048 32.7518C177.06 32.7158 179.746 24.4578 180.146 23.1278C181.002 20.2678 181.786 19.5518 182.1 19.5638C182.266 19.5638 182.64 19.9398 182.86 21.2438C183.819 28.1471 182.815 35.181 179.962 41.5398V41.5419Z" fill="#312DFF"/>
<path d="M52.6799 81.842C52.6799 82.1868 52.8169 82.5174 53.0607 82.7612C53.3045 83.005 53.6351 83.142 53.9799 83.142C54.3247 83.142 54.6554 83.005 54.8992 82.7612C55.143 82.5174 55.2799 82.1868 55.2799 81.842C55.2799 81.4972 55.143 81.1665 54.8992 80.9227C54.6554 80.6789 54.3247 80.542 53.9799 80.542C53.6351 80.542 53.3045 80.6789 53.0607 80.9227C52.8169 81.1665 52.6799 81.4972 52.6799 81.842Z" fill="#312DFF"/>
<path d="M70 70.4399C70.0132 70.7746 70.1553 71.0911 70.3968 71.3233C70.6382 71.5554 70.9601 71.685 71.295 71.685C71.6299 71.685 71.9518 71.5554 72.1932 71.3233C72.4347 71.0911 72.5768 70.7746 72.59 70.4399C72.5768 70.1053 72.4347 69.7887 72.1932 69.5566C71.9518 69.3245 71.6299 69.1948 71.295 69.1948C70.9601 69.1948 70.6382 69.3245 70.3968 69.5566C70.1553 69.7887 70.0132 70.1053 70 70.4399Z" fill="#312DFF"/>
<path d="M86.5701 83.1379C86.5701 83.4827 86.707 83.8133 86.9508 84.0571C87.1946 84.3009 87.5253 84.4379 87.8701 84.4379C88.2149 84.4379 88.5455 84.3009 88.7893 84.0571C89.0331 83.8133 89.1701 83.4827 89.1701 83.1379C89.1701 82.7931 89.0331 82.4625 88.7893 82.2187C88.5455 81.9749 88.2149 81.8379 87.8701 81.8379C87.5253 81.8379 87.1946 81.9749 86.9508 82.2187C86.707 82.4625 86.5701 82.7931 86.5701 83.1379Z" fill="#312DFF"/>
<path d="M109.186 86.7358C109.186 87.0806 109.323 87.4113 109.567 87.6551C109.811 87.8988 110.141 88.0358 110.486 88.0358C110.831 88.0358 111.161 87.8988 111.405 87.6551C111.649 87.4113 111.786 87.0806 111.786 86.7358C111.786 86.391 111.649 86.0604 111.405 85.8166C111.161 85.5728 110.831 85.4358 110.486 85.4358C110.141 85.4358 109.811 85.5728 109.567 85.8166C109.323 86.0604 109.186 86.391 109.186 86.7358Z" fill="#312DFF"/>
<path d="M120.922 67.0141C120.922 67.3589 121.059 67.6895 121.303 67.9333C121.546 68.1771 121.877 68.3141 122.222 68.3141C122.567 68.3141 122.897 68.1771 123.141 67.9333C123.385 67.6895 123.522 67.3589 123.522 67.0141C123.522 66.6693 123.385 66.3386 123.141 66.0948C122.897 65.851 122.567 65.7141 122.222 65.7141C121.877 65.7141 121.546 65.851 121.303 66.0948C121.059 66.3386 120.922 66.6693 120.922 67.0141Z" fill="#312DFF"/>
<path d="M145.514 66.7458C145.514 66.401 145.377 66.0704 145.133 65.8266C144.89 65.5828 144.559 65.4458 144.214 65.4458C143.869 65.4458 143.539 65.5828 143.295 65.8266C143.051 66.0704 142.914 66.401 142.914 66.7458C142.914 67.0906 143.051 67.4213 143.295 67.6651C143.539 67.9089 143.869 68.0458 144.214 68.0458C144.559 68.0458 144.89 67.9089 145.133 67.6651C145.377 67.4213 145.514 67.0906 145.514 66.7458Z" fill="#312DFF"/>
<path d="M152.946 49.2458C152.946 48.901 152.809 48.5704 152.565 48.3266C152.321 48.0828 151.991 47.9458 151.646 47.9458C151.301 47.9458 150.971 48.0828 150.727 48.3266C150.483 48.5704 150.346 48.901 150.346 49.2458C150.346 49.5906 150.483 49.9213 150.727 50.1651C150.971 50.4089 151.301 50.5458 151.646 50.5458C151.991 50.5458 152.321 50.4089 152.565 50.1651C152.809 49.9213 152.946 49.5906 152.946 49.2458Z" fill="#312DFF"/>
<path d="M99.6621 104.432C99.6753 104.767 99.8175 105.083 100.059 105.315C100.3 105.547 100.622 105.677 100.957 105.677C101.292 105.677 101.614 105.547 101.855 105.315C102.097 105.083 102.239 104.767 102.252 104.432C102.239 104.097 102.097 103.781 101.855 103.549C101.614 103.317 101.292 103.187 100.957 103.187C100.622 103.187 100.3 103.317 100.059 103.549C99.8175 103.781 99.6753 104.097 99.6621 104.432Z" fill="#312DFF"/>
<path d="M119.628 103.136C119.628 103.481 119.765 103.811 120.009 104.055C120.252 104.299 120.583 104.436 120.928 104.436C121.273 104.436 121.603 104.299 121.847 104.055C122.091 103.811 122.228 103.481 122.228 103.136C122.228 102.791 122.091 102.461 121.847 102.217C121.603 101.973 121.273 101.836 120.928 101.836C120.583 101.836 120.252 101.973 120.009 102.217C119.765 102.461 119.628 102.791 119.628 103.136Z" fill="#312DFF"/>
<path d="M101.022 127.184C103.879 126.648 106.587 125.505 108.964 123.832C111.341 122.16 113.332 119.997 114.802 117.49C114.857 117.406 114.876 117.304 114.856 117.207C114.836 117.109 114.778 117.023 114.694 116.968C114.611 116.913 114.509 116.894 114.411 116.914C114.313 116.934 114.227 116.992 114.172 117.076C112.757 119.496 110.839 121.584 108.548 123.2C106.257 124.816 103.647 125.922 100.892 126.444C100.797 126.465 100.714 126.521 100.66 126.602C100.606 126.682 100.586 126.781 100.602 126.876C100.619 126.972 100.672 127.057 100.75 127.114C100.829 127.172 100.926 127.197 101.022 127.184Z" fill="#312DFF"/>
<path d="M203.07 39.7441C203.07 40.0889 203.207 40.4195 203.451 40.6633C203.695 40.9071 204.025 41.0441 204.37 41.0441C204.715 41.0441 205.046 40.9071 205.289 40.6633C205.533 40.4195 205.67 40.0889 205.67 39.7441C205.67 39.3993 205.533 39.0686 205.289 38.8248C205.046 38.581 204.715 38.4441 204.37 38.4441C204.025 38.4441 203.695 38.581 203.451 38.8248C203.207 39.0686 203.07 39.3993 203.07 39.7441Z" fill="#312DFF"/>
<path d="M335.084 69.5998C335.084 69.255 334.947 68.9244 334.703 68.6806C334.459 68.4368 334.129 68.2998 333.784 68.2998C333.439 68.2998 333.108 68.4368 332.865 68.6806C332.621 68.9244 332.484 69.255 332.484 69.5998C332.484 69.9446 332.621 70.2753 332.865 70.5191C333.108 70.7629 333.439 70.8998 333.784 70.8998C334.129 70.8998 334.459 70.7629 334.703 70.5191C334.947 70.2753 335.084 69.9446 335.084 69.5998Z" fill="#312DFF"/>
</g>
<defs>
<clipPath id="clip0_412_2">
<rect width="381" height="252" fill="white"/>
</clipPath>
</defs>
</svg>
